<svg width="120" height="40" viewBox="0 0 120 40" fill="none" xmlns="http://www.w3.org/2000/svg">
  <path d="M25 20C25 12.268 31.268 6 39 6H81C88.732 6 95 12.268 95 20C95 27.732 88.732 34 81 34H39C31.268 34 25 27.732 25 20Z" fill="#E3001B"/>
  <path d="M45 20C45 22.761 42.761 25 40 25C37.239 25 35 22.761 35 20C35 17.239 37.239 15 40 15C42.761 15 45 17.239 45 20Z" fill="white"/>
  <path d="M53 15H57L60 25H56L55.5 23H54.5L54 25H50L53 15ZM55 20.5L55.5 18L55.7 20.5H55Z" fill="white"/>
  <path d="M62 15H67C69.761 15 72 17.239 72 20C72 22.761 69.761 25 67 25H62V15ZM66 21C66.552 21 67 20.552 67 20C67 19.448 66.552 19 66 19H65V21H66Z" fill="white"/>
  <path d="M75 15H79C81.761 15 84 17.239 84 20C84 22.761 81.761 25 79 25H75V15ZM79 21C79.552 21 80 20.552 80 20C80 19.448 79.552 19 79 19H78V21H79Z" fill="white"/>
  <path d="M85 15H89V25H85V15Z" fill="white"/>
</svg> 