<svg width="120" height="40" viewBox="0 0 120 40" fill="none" xmlns="http://www.w3.org/2000/svg">
  <path d="M60 8C69.941 8 78 16.059 78 26C78 35.941 69.941 44 60 44C50.059 44 42 35.941 42 26C42 16.059 50.059 8 60 8Z" fill="#E3001B" transform="translate(0 -6)"/>
  <path d="M60 13C67.18 13 73 18.82 73 26C73 33.18 67.18 39 60 39C52.82 39 47 33.18 47 26C47 18.82 52.82 13 60 13Z" fill="white" transform="translate(0 -6)"/>
  <path d="M60 19C63.866 19 67 22.134 67 26C67 29.866 63.866 33 60 33C56.134 33 53 29.866 53 26C53 22.134 56.134 19 60 19Z" fill="#E3001B" transform="translate(0 -6)"/>
</svg> 