<svg width="32" height="32" viewBox="0 0 32 32" fill="none" xmlns="http://www.w3.org/2000/svg">
<g clip-path="url(#clip0_1692_62308)">
<path d="M0 0H32V32H0V0Z" fill="url(#paint0_linear_1692_62308)"/>
<path fill-rule="evenodd" clip-rule="evenodd" d="M17.1087 2.62611L17.1087 2.62614L17.1086 2.6261L13.8565 5.87829L13.8565 5.87832L6.18411 13.5507L9.4363 16.8029L9.43644 16.8027L15.1623 22.5286L18.4145 19.2764L12.6886 13.5506L17.1087 9.1305L31.9267 23.9485L35.1789 20.6963L20.3609 5.87832L20.3609 5.87829L17.1087 2.62611Z" fill="white"/>
<path fill-rule="evenodd" clip-rule="evenodd" d="M15.07 29.9948L15.0701 29.9947L18.3223 26.7425L25.9946 19.0702L22.7424 15.818L22.7423 15.8181L17.0165 10.0922L13.7643 13.3444L19.4902 19.0703L15.0701 23.4903L0.252062 8.6723L-3.00012 11.9245L11.8179 26.7425L11.8179 26.7426L15.07 29.9948Z" fill="white"/>
</g>
<defs>
<linearGradient id="paint0_linear_1692_62308" x1="16" y1="0" x2="16" y2="32" gradientUnits="userSpaceOnUse">
<stop stop-color="#252339"/>
<stop offset="1" stop-color="#B82EAF"/>
</linearGradient>
<clipPath id="clip0_1692_62308">
<rect width="32" height="32" fill="white"/>
</clipPath>
</defs>
</svg>
