<?xml version="1.0" encoding="utf-8"?>
<!-- Generator: Adobe Illustrator 26.4.1, SVG Export Plug-In . SVG Version: 6.00 Build 0)  -->
<svg version="1.0" id="katman_1" xmlns="http://www.w3.org/2000/svg" xmlns:xlink="http://www.w3.org/1999/xlink" x="0px" y="0px"
	 viewBox="0 0 841.89 595.28" style="enable-background:new 0 0 841.89 595.28;" xml:space="preserve">
<style type="text/css">
	.st0{fill:#26224E;}
</style>
<path class="st0" d="M353.98,398.49h-28.44c-11.94,0-18.04-2.68-22.43-8.63c-4.71-6.28-4.71-15.91-4.71-24.96V196.16h36.56v174.19
	c0,13.82,1.46,23.62,18.93,27.55v0.59H353.98z"/>
<path class="st0" d="M279.23,398.41h-45.75l-33.64-74.17c-18.36,10.14-28.84,33.54-47.45,49.04c-9.51,7.91-20.56,14.92-34.37,19.7
	c-6.26,2.14-16.9,4.95-20.88,5.36c-1.71,0.16-2.84,0.08-3.09-0.49c-0.16-0.49,0.24-0.82,2.03-1.73c2.03-0.99,10.4-4.53,15.68-8.24
	c6.58-4.7,10.32-9.73,10.64-13.6c-1.79-6.43-14.71-20.77-1.54-47.06c4.71-9.48,8.78-16.24,11.7-23.08
	c3.33-7.83,5.77-18.87,6.58-27.12c0.08-0.49,0.16-0.49,0.41-0.16c6.42,6.59,31.28,32.47,27.63,58.27
	c8.29-3.21,22.59-13.02,29.17-18.21c6.99-5.52,11.54-11.21,18.93-11.37c6.58-0.08,7.15,3.13,12.43,3.79
	c1.3,0.16,3.25-0.08,4.23-0.58c0.41-0.16,0.32-0.66-0.32-0.82c-7.15-1.73-8.94-7.67-18.2-7.67c-8.29,0-14.95,7.75-19.74,10.96
	l-23.48-49.62c-9.75-20.77-6.82-35.85,14.79-65.52L279.23,398.41z"/>
<path class="st0" d="M423.77,398.49h-28.44c-11.94,0-18.04-2.68-22.43-8.63c-4.71-6.28-4.71-15.91-4.71-24.96V196.16h36.56v174.19
	c0,13.82,1.46,23.62,18.93,27.55v0.59H423.77z"/>
<path class="st0" d="M467.58,244.7h-13.49l-1.87,4.37h-7.23l14.46-33.38h2.76l14.46,33.38h-7.23L467.58,244.7z M460.92,227.89
	l-4.31,11.21h8.69L460.92,227.89z"/>
<path class="st0" d="M513.24,217.26c2.52,1.48,4.55,3.46,6.01,6.1l-5.12,3.63c-2.36-3.71-5.44-5.6-9.42-5.6
	c-3.09,0-5.61,0.99-7.64,3.05c-2.03,2.06-3.01,4.7-3.01,7.91s0.98,5.85,3.01,7.83c2.03,2.06,4.55,3.05,7.64,3.05
	c3.98,0,7.07-1.9,9.42-5.6l5.12,3.63c-1.46,2.64-3.41,4.62-6.01,6.1c-2.6,1.48-5.44,2.23-8.61,2.23c-4.96,0-9.1-1.65-12.43-4.95
	c-3.41-3.3-5.04-7.42-5.04-12.36c0-4.86,1.71-8.98,5.12-12.28c3.41-3.3,7.56-4.95,12.43-4.95
	C507.88,215.03,510.72,215.78,513.24,217.26z"/>
<path class="st0" d="M558.17,217.26c2.52,1.48,4.55,3.46,6.01,6.1l-5.12,3.63c-2.36-3.71-5.44-5.6-9.43-5.6
	c-3.09,0-5.61,0.99-7.64,3.05s-3.01,4.7-3.01,7.91s0.98,5.85,3.01,7.83c2.03,2.06,4.55,3.05,7.64,3.05c3.98,0,7.07-1.9,9.43-5.6
	l5.12,3.63c-1.46,2.64-3.41,4.62-6.01,6.1c-2.6,1.48-5.44,2.23-8.61,2.23c-4.96,0-9.1-1.65-12.43-4.95
	c-3.41-3.3-5.04-7.42-5.04-12.36c0-4.86,1.71-8.98,5.12-12.28c3.41-3.3,7.56-4.95,12.43-4.95
	C552.81,215.03,555.66,215.78,558.17,217.26z"/>
<path class="st0" d="M607.01,220.06c3.41,3.3,5.12,7.42,5.12,12.28c0,4.86-1.71,8.98-5.12,12.36c-3.42,3.3-7.56,4.94-12.43,4.94
	c-4.88,0-9.02-1.65-12.35-4.94c-3.41-3.3-5.12-7.42-5.12-12.36c0-4.86,1.71-8.98,5.12-12.28c3.41-3.3,7.56-4.95,12.35-4.95
	C599.37,215.12,603.51,216.68,607.01,220.06z M587.02,224.43c-2.03,2.06-3.01,4.7-3.01,7.91c0,3.21,0.98,5.85,3.01,7.91
	c1.95,2.06,4.55,3.05,7.64,3.05c3.01,0,5.53-0.99,7.56-3.05c2.03-2.06,3.01-4.7,3.01-7.91c0-3.21-0.97-5.85-3.01-7.91
	c-2.03-2.06-4.55-3.05-7.56-3.05C591.57,221.38,589.05,222.37,587.02,224.43z"/>
<path class="st0" d="M648.12,249.07l-8.53-11.79h-4.95v11.79h-6.75v-33.38h12.35c3.49,0,6.34,0.99,8.53,2.97
	c2.19,1.98,3.33,4.62,3.33,7.83c0,2.14-0.49,4.04-1.54,5.6c-1.06,1.65-2.44,2.88-4.23,3.79l9.35,13.19H648.12z M634.63,231.27h5.61
	c1.54,0,2.76-0.41,3.65-1.32c0.9-0.91,1.3-2.06,1.3-3.46c0-1.4-0.49-2.56-1.38-3.46c-0.89-0.91-2.11-1.32-3.65-1.32h-5.61v9.56
	H634.63z"/>
<path class="st0" d="M451.81,315.91h14.38v6.18h-21.13v-33.38h6.74V315.91z"/>
<path class="st0" d="M486.92,322.1h-6.74v-33.38h6.74V322.1z"/>
<path class="st0" d="M532.26,288.63l-14.38,33.38h-2.76l-14.46-33.38h7.64l8.21,20.28l8.21-20.28H532.26z"/>
<path class="st0" d="M568.17,294.82h-15.44v6.76h11.29v5.85h-11.29v8.49h16.01v6.18h-22.75v-33.38h22.18V294.82z"/>
<path class="st0" d="M451.81,391.03h14.38v6.18h-21.13v-33.38h6.74V391.03z"/>
<path class="st0" d="M486.92,397.21h-6.74v-33.38h6.74V397.21z"/>
<path class="st0" d="M536.4,363.74v33.46h-6.74v-17.89l-8.29,10.55h-2.19l-8.29-10.55v17.89h-6.74v-33.46h2.6l13.49,17.56
	l13.49-17.56H536.4z"/>
<path class="st0" d="M560.45,397.21h-6.74v-33.38h6.74V397.21z"/>
<path class="st0" d="M601.97,369.93h-10.56v27.2h-6.74v-27.2H574.1v-6.1h27.87V369.93z"/>
<path class="st0" d="M622.53,391.03h14.38v6.18h-21.12v-33.38h6.74V391.03z"/>
<path class="st0" d="M673.07,369.93h-15.44v6.76h11.29v5.85h-11.29v8.49h16.01v6.18h-22.75v-33.38h22.18V369.93z"/>
<path class="st0" d="M705.32,364.9c1.87,1.15,3.25,2.72,4.31,4.62l-4.55,3.63c-1.71-2.55-3.82-3.87-6.26-3.87
	c-1.13,0-2.11,0.25-2.92,0.82c-0.81,0.58-1.13,1.32-1.13,2.39c0,0.91,0.32,1.57,0.89,2.06c0.57,0.49,1.54,1.07,3.01,1.73l3.74,1.65
	c2.76,1.24,4.79,2.64,6.17,4.12c1.3,1.48,2.03,3.38,2.03,5.6c0,3.05-1.06,5.44-3.25,7.25c-2.19,1.81-4.95,2.72-8.28,2.72
	c-2.76,0-5.28-0.66-7.48-1.98c-2.19-1.32-3.98-3.13-5.2-5.36l4.63-3.54c2.28,3.21,4.95,4.86,8.05,4.86c1.46,0,2.6-0.33,3.41-0.99
	c0.81-0.66,1.22-1.57,1.22-2.72c0-0.66-0.16-1.24-0.57-1.81c-0.4-0.49-0.81-0.91-1.3-1.15c-0.49-0.25-1.22-0.66-2.36-1.15
	l-3.58-1.65c-2.6-1.15-4.55-2.56-5.93-4.04c-1.38-1.48-2.03-3.38-2.03-5.6c0-2.8,1.06-5.11,3.09-6.84c2.03-1.73,4.71-2.64,7.8-2.64
	C701.34,363.17,703.54,363.74,705.32,364.9z"/>
<path class="st0" d="M742.13,364.9c1.87,1.15,3.25,2.72,4.31,4.62l-4.55,3.63c-1.71-2.55-3.82-3.87-6.26-3.87
	c-1.14,0-2.11,0.25-2.92,0.82c-0.81,0.58-1.14,1.32-1.14,2.39c0,0.91,0.33,1.57,0.9,2.06c0.57,0.49,1.54,1.07,3.01,1.73l3.74,1.65
	c2.76,1.24,4.79,2.64,6.17,4.12c1.3,1.48,2.03,3.38,2.03,5.6c0,3.05-1.06,5.44-3.25,7.25c-2.19,1.81-4.95,2.72-8.29,2.72
	c-2.76,0-5.28-0.66-7.47-1.98c-2.19-1.32-3.98-3.13-5.2-5.36l4.63-3.54c2.27,3.21,4.95,4.86,8.04,4.86c1.46,0,2.6-0.33,3.42-0.99
	c0.81-0.66,1.22-1.57,1.22-2.72c0-0.66-0.16-1.24-0.57-1.81c-0.4-0.49-0.81-0.91-1.3-1.15c-0.49-0.25-1.21-0.66-2.35-1.15
	l-3.58-1.65c-2.6-1.15-4.55-2.56-5.93-4.04c-1.38-1.48-2.03-3.38-2.03-5.6c0-2.8,1.05-5.11,3.09-6.84c2.03-1.73,4.71-2.64,7.8-2.64
	C738.07,363.17,740.27,363.74,742.13,364.9z"/>
</svg>
